<svg width="16" height="16" viewBox="0 0 16 16" fill="none" xmlns="http://www.w3.org/2000/svg">
<path d="M6.5 3.66675H9.16667C9.44281 3.66675 9.66667 3.44289 9.66667 3.16675C9.66667 2.89061 9.44281 2.66675 9.16667 2.66675H6.5C6.22386 2.66675 6 2.89061 6 3.16675C6 3.44289 6.22386 3.66675 6.5 3.66675Z" fill="black"/>
<path d="M9.16667 7.33341H6.5C6.22386 7.33341 6 7.55727 6 7.83341C6 8.10956 6.22386 8.33341 6.5 8.33341H9.16667C9.44281 8.33341 9.66667 8.10956 9.66667 7.83341C9.66667 7.55727 9.44281 7.33341 9.16667 7.33341Z" fill="black"/>
<path d="M9.16667 12.0001H6.5C6.22386 12.0001 6 12.2239 6 12.5001C6 12.7762 6.22386 13.0001 6.5 13.0001H9.16667C9.44281 13.0001 9.66667 12.7762 9.66667 12.5001C9.66667 12.2239 9.44281 12.0001 9.16667 12.0001Z" fill="black"/>
</svg>
